<?xml version="1.0" encoding="utf-8"?>
<!-- Generator: Adobe Illustrator 14.0.0, SVG Export Plug-In . SVG Version: 6.00 Build 43363)  -->
<!DOCTYPE svg PUBLIC "-//W3C//DTD SVG 1.1//EN" "http://www.w3.org/Graphics/SVG/1.1/DTD/svg11.dtd">
<svg version="1.1" id="Layer_1" xmlns="http://www.w3.org/2000/svg" xmlns:xlink="http://www.w3.org/1999/xlink" x="0px" y="0px"
	 width="420px" height="512.758px" viewBox="0 0 420 512.758" enable-background="new 0 0 420 512.758" xml:space="preserve">
<g>
	<polygon fill="#FFFFFF" stroke="#231F20" stroke-width="0.995" stroke-linejoin="round" stroke-miterlimit="10" points="
		273.314,35.269 267.078,39.417 264.534,39.566 261.34,37.983 252.537,36.07 245.193,34.631 236.741,31.593 235.779,29.843 
		229.061,27.927 226.662,29.217 223.467,29.219 219.964,33.996 220.59,37.036 219.154,41.664 214.045,42.295 210.534,39.436 
		206.218,37.521 199.038,36.563 197.283,31.772 193.924,29.228 184.971,29.065 177.769,25.879 172.346,22.359 172.198,20.299 
		176.013,14.229 175.704,12.625 174.426,9.125 176.347,6.895 175.865,3.853 172.821,4.808 172.025,3.058 169.626,2.412 
		165.477,4.187 154.772,4.19 150.308,6.566 146.152,4.509 134.492,7.052 126.021,7.392 122.037,11.54 118.512,11.685 116.28,14.731 
		110.688,15.213 108.291,13.938 107.013,14.735 99.502,14.564 95.351,11.067 89.447,22.243 85.133,23.829 81.458,26.872 
		78.1,29.583 77.475,31.814 74.267,36.607 74.437,43.777 70.932,49.846 63.253,55.121 57.181,57.518 56.079,63.585 51.764,65.651 
		49.05,67.258 48.406,73.321 47.782,76.654 45.213,78.097 40.899,82.101 39.795,86.725 38.668,88.168 37.226,90.083 36.125,97.729 
		37.394,96.775 39.319,101.714 38.839,107.297 40.278,110.507 38.53,121.993 36.449,125.016 36.449,127.413 32.942,133 
		35.655,135.396 36.763,138.896 35.177,142.251 35.975,146.233 38.854,150.233 40.772,150.547 45.072,154.69 46.511,158.046 
		50.187,160.592 53.233,165.696 53.386,169.383 54.987,170.969 55.635,173.676 62.505,176.717 64.906,181.656 67.929,182.445 
		71.606,186.597 80.869,192.653 90.467,188.505 93.323,188.358 98.916,186.752 103.548,189.312 106.596,188.19 109.142,190.269 
		121.286,184.679 124.475,184.511 125.767,182.426 128.63,182.279 129.585,181.154 132.943,180.843 135.034,180.843 
		139.016,180.943 144.001,182.319 146.844,184.986 147.325,185.465 148.763,190.255 151.333,192.156 164.415,191.046 
		166.498,194.396 169.211,194.876 171.303,199.981 170.657,204.92 169.217,209.382 169.533,211.948 169.533,212.257 169.866,215.76 
		168.91,217.532 168.738,219.598 166.508,222.638 168.118,227.413 171.314,232.04 180.415,243.689 182.023,246.083 182.648,247.836 
		182.814,249.748 183.775,250.707 183.295,253.275 187.765,261.402 189.037,266.198 187.934,271.777 191.44,280.389 
		191.442,286.141 190.487,288.852 185.377,295.232 183.628,304.652 181.227,309.759 180.439,317.408 180.439,317.889 
		180.125,322.034 184.593,329.848 187.804,338.438 194.495,347.958 194.347,358.734 195.789,363.051 196.438,371.51 
		199.472,379.471 203.932,383.154 206.816,387.451 207.631,394.954 212.412,402.145 212.27,406.439 209.705,407.876 
		212.752,412.355 211.939,415.548 214.172,415.688 220.098,418.398 224.083,416.023 227.922,416.813 230.152,415.063 
		242.773,415.059 244.217,414.244 248.206,413.613 250.436,412.177 254.586,411.531 258.904,408.984 263.7,404.021 269.916,397.955 
		272.959,393.014 277.422,386.156 281.91,382.964 283.494,378.339 283.807,375.299 284.758,371.96 283.971,366.855 286.052,363.809 
		290.688,363.497 295.46,360.785 298.652,354.385 299.13,346.42 296.745,340.359 295.617,333.646 299.936,328.227 303.129,327.098 
		307.277,321.034 315.411,317.841 316.712,317.359 321.173,313.212 325.486,307.627 326.927,300.932 326.109,293.911 
		326.104,285.133 325.959,278.736 321.807,273.486 320.678,267.902 321.467,264.063 320.357,260.396 321.945,258.164 
		322.425,257.209 319.064,254.161 319.064,248.27 321.459,244.765 324.171,238.697 326.73,233.426 329.445,230.068 333.117,227.834 
		333.766,225.605 341.895,214.594 347.654,208.53 352.116,206.446 359.148,201.02 367.135,189.849 375.912,170.692 379.418,162.875 
		380.854,149.636 378.618,148.681 376.386,150.598 374.154,151.078 372.072,152.519 367.605,152.664 365.036,153.957 
		362.494,152.995 359.299,156.332 355.939,156.67 353.061,155.231 350.514,157.151 346.846,157.463 340.438,152.36 340.771,147.088 
		339.329,144.234 336.759,141.838 333.256,137.837 329.893,133.208 328.141,133.064 327.977,132.9 315.992,114.393 313.425,113.606 
		311.837,111.833 309.438,109.454 308.475,99.076 303.84,88.076 303.675,87.739 299.372,85.032 291.855,67.318 288.014,61.589 
		287.867,58.543 283.064,51.208 281.626,46.748 288.096,51.194 293.994,59.509 303,60.896 306.117,56.045 301.493,40.451 
		288.096,32.135 	"/>
</g>
<polygon fill="#F6921E" points="277.066,224.594 295.674,224.497 312.952,236.221 313.154,238.779 320.893,244.961 319.064,248.27 
	319.066,254.161 321.768,257.405 319.846,260.941 320.893,264.26 320.68,267.902 321.809,273.486 325.118,278.604 325.371,278.914 
	321.113,282.375 317.84,283.768 313.254,283.46 312.313,286.08 307.95,284.917 305.764,286.307 303.365,284.486 301.053,285.51 
	298.066,284.486 296.386,280.781 296.473,276.134 294.508,273.659 291.66,274.083 288.32,272.92 278.537,268.029 274.971,259.471 
	271.085,254.725 271.602,250.934 269.961,247.828 270.725,243.508 267.811,233.44 268.529,229.733 271.602,226.25 "/>
<polygon fill="none" stroke="#231F20" stroke-width="0.995" stroke-miterlimit="10" points="277.066,224.594 295.674,224.497 
	312.952,236.221 313.154,238.779 320.893,244.961 319.064,248.27 319.066,254.161 321.768,257.405 319.846,260.941 320.893,264.26 
	320.68,267.902 321.809,273.486 325.118,278.604 325.371,278.914 321.113,282.375 317.84,283.768 313.254,283.46 312.313,286.08 
	307.95,284.917 305.764,286.307 303.365,284.486 301.053,285.51 298.066,284.486 296.386,280.781 296.473,276.134 294.508,273.659 
	291.66,274.083 288.32,272.92 278.537,268.029 274.971,259.471 271.085,254.725 271.602,250.934 269.961,247.828 270.725,243.508 
	267.811,233.44 268.529,229.733 271.602,226.25 "/>
<polygon fill="#F6921E" points="105.457,155.081 106.07,158.997 105.764,161.452 106.07,168.919 106.513,171.887 104.751,174.321 
	103.287,177.619 103.387,182.633 105.97,186.237 106.154,188.344 108.752,190.288 121.285,184.678 124.474,184.512 125.766,182.425 
	123.456,179.34 122.568,172.686 124.228,170.701 122.488,167.857 123.204,164.722 121.748,163.208 121.748,158.257 120.234,156.806 
	119.782,153.833 117.472,153.344 115.112,155.575 "/>
<polygon fill="none" stroke="#231F20" stroke-width="0.995" stroke-miterlimit="10" points="105.457,155.081 106.07,158.997 
	105.764,161.452 106.07,168.919 106.513,171.887 104.751,174.321 103.287,177.619 103.387,182.633 105.97,186.237 106.154,188.344 
	108.752,190.288 121.285,184.678 124.474,184.512 125.766,182.425 123.456,179.34 122.568,172.686 124.228,170.701 122.488,167.857 
	123.204,164.722 121.748,163.208 121.748,158.257 120.234,156.806 119.782,153.833 117.472,153.344 115.112,155.575 "/>
<polygon fill="#F6921E" points="44.663,154.755 45.422,152.482 47.776,151.094 51.34,150.805 51.34,149.677 49.516,147.981 
	51.092,146.221 51.01,145.094 52.79,145.094 57.087,147.016 58.544,146.305 61.819,146.327 63.369,149.097 64.955,147.62 
	66.145,149.097 68.125,148.148 70.592,149.097 73.447,145.853 74.998,146.327 75.328,149.496 77.281,152.197 75.841,154.615 
	78.169,156.08 78.213,157.828 80.075,159.32 78.926,160.511 78.722,163.066 80.383,165.377 80.46,168.429 78.068,169.391 
	78.56,171.99 76.963,174.038 75.243,174.386 74.326,176.006 73.158,176.251 71.825,174.933 72.157,171.814 71.297,168.877 
	67.058,168.919 65.63,164.389 63.369,160.309 59.299,159.853 56.677,160.918 54.43,165.277 52.874,165.785 49.976,160.836 
	46.511,158.047 "/>
<polygon fill="none" stroke="#231F20" stroke-width="0.995" stroke-miterlimit="10" points="44.663,154.755 45.422,152.482 
	47.776,151.094 51.34,150.805 51.34,149.677 49.516,147.981 51.092,146.221 51.01,145.094 52.79,145.094 57.087,147.016 
	58.544,146.305 61.819,146.327 63.369,149.097 64.955,147.62 66.145,149.097 68.125,148.148 70.592,149.097 73.447,145.853 
	74.998,146.327 75.328,149.496 77.281,152.197 75.841,154.615 78.169,156.08 78.213,157.828 80.075,159.32 78.926,160.511 
	78.722,163.066 80.383,165.377 80.46,168.429 78.068,169.391 78.56,171.99 76.963,174.038 75.243,174.386 74.326,176.006 
	73.158,176.251 71.825,174.933 72.157,171.814 71.297,168.877 67.058,168.919 65.63,164.389 63.369,160.309 59.299,159.853 
	56.677,160.918 54.43,165.277 52.874,165.785 49.976,160.836 46.511,158.047 "/>
<polygon fill="#F6921E" points="214.82,201.753 215.271,192.725 219.593,188.302 222.254,189.021 225.38,193.113 229.863,192.931 
	234.387,195.078 234.799,192.006 237.583,189.533 240.04,191.5 245.914,188.202 247.971,189.085 249.598,186.768 255.678,188.202 
	259.383,187.484 263.7,193.443 266.157,193.748 267.918,191.598 270.271,192.416 270.68,191.5 277.165,196.944 278.292,196.944 
	278.09,199.909 278.604,201.567 277.27,203.613 279.73,205.375 279.73,207.626 272.341,215.34 271.602,226.25 268.529,229.733 
	267.811,233.439 270.375,243.529 269.963,247.828 271.602,250.934 271.087,254.725 274.973,259.471 277.13,264.836 268.184,266.986 
	264.375,271.1 265.77,274.15 265.361,282.23 264.479,284.014 268.371,289.275 270.742,289.175 270.742,295.107 268.184,295.294 
	264.438,290.238 261.43,288.966 258.5,285.734 255.923,287.557 251.111,286.27 248.984,283.628 245.337,284.341 242.66,280.924 
	239.238,281.148 233.143,282.891 233.256,276.568 231.829,273.801 231.493,265.389 230.74,263.383 231.299,261.553 230.006,260.209 
	225.361,260.127 224.195,258.162 219.404,258.584 219.404,261.809 218.098,264.427 215.764,263.688 214.023,264.282 
	210.031,263.833 207.269,260.275 205.079,252.941 186.387,251.78 183.297,253.275 184.415,250.003 184.769,247.576 187.36,244.988 
	188.353,245.739 192.86,242.689 195.188,246.391 200.047,241.03 202.069,240.083 203.256,230.834 206.427,226.233 207.08,224.35 
	210.844,221.997 212.566,206.194 "/>
<polygon fill="none" stroke="#231F20" stroke-width="0.995" stroke-miterlimit="10" points="214.82,201.753 215.271,192.725 
	219.593,188.302 222.254,189.021 225.38,193.113 229.863,192.931 234.387,195.078 234.799,192.006 237.583,189.533 240.04,191.5 
	245.914,188.202 247.971,189.085 249.598,186.768 255.678,188.202 259.383,187.484 263.7,193.443 266.157,193.748 267.918,191.598 
	270.271,192.416 270.68,191.5 277.165,196.944 278.292,196.944 278.09,199.909 278.604,201.567 277.27,203.613 279.73,205.375 
	279.73,207.626 272.341,215.34 271.602,226.25 268.529,229.733 267.811,233.439 270.375,243.529 269.963,247.828 271.602,250.934 
	271.087,254.725 274.973,259.471 277.13,264.836 268.184,266.986 264.375,271.1 265.77,274.15 265.361,282.23 264.479,284.014 
	268.371,289.275 270.742,289.175 270.742,295.107 268.184,295.294 264.438,290.238 261.43,288.966 258.5,285.734 255.923,287.557 
	251.111,286.27 248.984,283.628 245.337,284.341 242.66,280.924 239.238,281.148 233.143,282.891 233.256,276.568 231.829,273.801 
	231.493,265.389 230.74,263.383 231.299,261.553 230.006,260.209 225.361,260.127 224.195,258.162 219.404,258.584 219.404,261.809 
	218.098,264.427 215.764,263.688 214.023,264.282 210.031,263.833 207.269,260.275 205.079,252.941 186.387,251.78 183.297,253.275 
	184.415,250.003 184.769,247.576 187.36,244.988 188.353,245.739 192.86,242.689 195.188,246.391 200.047,241.03 202.069,240.083 
	203.256,230.834 206.427,226.233 207.08,224.35 210.844,221.997 212.566,206.194 "/>
<polygon fill="none" stroke="#808184" stroke-width="0.196" stroke-miterlimit="10" points="370.365,288.477 368.758,294.852 
	365.084,296.294 363.982,299.313 357.436,308.261 346.089,312.41 342.895,319.123 344.342,332.527 339.227,342.094 337.313,345.762 
	338.438,350.557 339.07,359.643 344.035,364.128 347.543,366.189 349.29,364.912 355.7,362.512 359.038,356.279 359.992,349.592 
	363.038,342.876 365.438,336.662 366.541,332.52 370.377,322.303 370.854,317.342 373.254,314.152 372.915,307.771 375.313,308.253 
	375.646,303.936 373.391,294.061 "/>
<polygon fill="#FFFFFF" stroke="#231F20" stroke-width="0.995" stroke-linejoin="round" stroke-miterlimit="10" points="
	370.365,288.477 368.758,294.854 365.084,296.296 363.98,299.313 357.436,308.261 346.089,312.408 342.895,319.121 344.342,332.525 
	339.227,342.096 337.313,345.76 338.438,350.557 339.07,359.643 344.035,364.128 347.543,366.189 349.29,364.91 355.7,362.512 
	359.038,356.279 359.992,349.59 363.038,342.876 365.438,336.664 366.541,332.518 370.377,322.307 370.854,317.344 373.254,314.156 
	372.913,307.771 375.313,308.253 375.646,303.934 373.391,294.061 "/>
<g>
	<path fill="#231F20" d="M123.807,169.881c0,5.906-4.781,10.688-10.687,10.688c-5.906,0-10.692-4.783-10.692-10.688
		c0-5.899,4.787-10.689,10.692-10.689C119.025,159.19,123.807,163.981,123.807,169.881"/>
</g>
<text transform="matrix(1 0 0 1 106.2139 175.0193)" fill="#FFFFFF" font-size="15">2</text>
<g>
	<path fill="#FFFFFF" d="M114.102,180.291c0.948-0.901,2.417-2.873,3.354-5.287c1.496-3.85,2.057-9.632-3.556-15.548
		c5.478,0.316,9.836,4.871,9.836,10.426C123.737,175.366,119.484,179.879,114.102,180.291"/>
	<path fill="#231F20" d="M114.521,159.762c5.044,0.604,8.968,4.911,8.968,10.119c0,5.122-3.799,9.375-8.728,10.086
		c0.974-1.09,2.147-2.882,2.916-4.842C119.169,171.306,119.765,165.616,114.521,159.762 M113.297,159.189
		c10.656,10.66,0.786,21.349,0.007,21.38c5.902-0.001,10.682-4.787,10.682-10.688C123.986,163.98,119.241,159.189,113.297,159.189
		 M113.305,180.569h-0.007h0.002H113.305z"/>
</g>
<text transform="matrix(1 0 0 1 224.8691 243.3484)" fill="#FFFFFF" font-size="16">DRC</text>
<text transform="matrix(1 0 0 1 327.1777 261.2507)" fill="#FFFFFF" font-size="16">Tanzania</text>
<text transform="matrix(1 0 0 1 95.1782 210.5242)" fill="#FFFFFF" font-size="16">Ghana</text>
<text transform="matrix(1 0 0 1 2 171.823)" fill="#FFFFFF" font-size="16">Guinea</text>
<g>
	<path fill="#231F20" d="M78.188,156.997c0,5.881-4.763,10.637-10.641,10.637c-5.875,0-10.638-4.756-10.638-10.637
		c0-5.873,4.762-10.636,10.638-10.636C73.425,146.36,78.188,151.124,78.188,156.997"/>
</g>
<text transform="matrix(1 0 0 1 63.3672 162.1082)" fill="#FFFFFF" font-size="15">1</text>
<g>
	<path fill="#231F20" d="M264.573,210.752c0,5.881-4.763,10.636-10.642,10.636c-5.873,0-10.637-4.755-10.637-10.636
		c0-5.873,4.764-10.637,10.637-10.637C259.811,200.115,264.573,204.88,264.573,210.752"/>
</g>
<text transform="matrix(1 0 0 1 249.75 215.8679)" fill="#FFFFFF" font-size="15">3</text>
<g>
	<path fill="#231F20" d="M295.529,239.282c0,5.883-4.762,10.641-10.639,10.641c-5.873,0-10.637-4.757-10.637-10.641
		c0-5.872,4.764-10.634,10.637-10.634C290.768,228.648,295.529,233.41,295.529,239.282"/>
</g>
<text transform="matrix(1 0 0 1 280.7109 244.3953)" fill="#FFFFFF" font-size="15">4</text>
<g>
	<path fill="#231F20" d="M9.881,454.372c3.285,0,5.946-2.66,5.946-5.945c0-3.28-2.661-5.946-5.946-5.946
		c-3.284,0-5.945,2.666-5.945,5.946C3.936,451.712,6.597,454.372,9.881,454.372"/>
</g>
<text transform="matrix(1 0 0 1 18 454.3728)" fill="#FFFFFF" font-size="15"> Operation </text>
<g>
	<path fill="#FFFFFF" d="M103.663,453.624c2.864,0,5.196-2.328,5.196-5.197c0-2.862-2.332-5.194-5.196-5.194
		c-2.865,0-5.197,2.332-5.197,5.194C98.466,451.296,100.798,453.624,103.663,453.624"/>
	<path fill="none" stroke="#FFFFFF" stroke-width="0.75" d="M103.663,453.624c2.864,0,5.196-2.328,5.196-5.197
		c0-2.862-2.332-5.194-5.196-5.194c-2.865,0-5.197,2.332-5.197,5.194C98.466,451.296,100.798,453.624,103.663,453.624z"/>
</g>
<text transform="matrix(1 0 0 1 111 454.3728)" fill="#FFFFFF" font-size="15"> Project</text>
<rect x="307.01" y="428.44" fill="#FFFFFF" width="80.344" height="5.396"/>
<path fill="none" stroke="#FFFFFF" stroke-width="0.72" stroke-miterlimit="22.926" d="M387.633,433.837v-12.769 M306.798,433.83
	v-12.768"/>
<text transform="matrix(1 0 0 1 358.0703 416.8093)" fill="#FFFFFF" font-size="15">2,000km</text>
<text transform="matrix(1 0 0 1 302.9453 416.8093)" fill="#FFFFFF" font-size="15">0</text>
<text transform="matrix(1 0 0 1 4.2905 480.9167)" fill="#FFFFFF" font-size="15">LEGEND:</text>
<g>
	<path fill="#FFFFFF" d="M81.886,482.978c4.237,0,7.671-3.438,7.671-7.673c0-4.238-3.435-7.67-7.671-7.67
		c-4.236,0-7.671,3.432-7.671,7.67C74.215,479.541,77.651,482.978,81.886,482.978"/>
</g>
<text transform="matrix(1 0 0 1 79.1934 479.3357)" fill="#FFFFFF" font-size="11">1</text>
<text transform="matrix(1 0 0 1 92 480.0007)" fill="#FFFFFF" class="bold" font-size="13">Guinea</text>
<text transform="matrix(1 0 0 1 134.0415 480.0007)" fill="#FFFFFF" font-size="13"> Siguiri (85%)</text>
<g>
	<path fill="#FFFFFF" d="M232.279,482.872c4.22,0,7.64-3.421,7.64-7.642c0-4.217-3.42-7.638-7.64-7.638
		c-4.219,0-7.639,3.42-7.639,7.638C224.641,479.451,228.061,482.872,232.279,482.872"/>
	<circle fill="none" stroke="#FFFFFF" stroke-width="0.156" cx="232.279" cy="475.233" r="7.64"/>
</g>
<text transform="matrix(1 0 0 1 228.0195 479.3386)" fill="#FFFFFF" font-size="10.8256">2</text>
<g>
	<path fill="#FFFFFF" d="M232.279,482.872c4.22,0,7.664-3.421,7.64-7.642c-0.041-7.292-7.083-7.625-7.083-7.625
		C236.266,470.564,237.83,477.321,232.279,482.872"/>
	<path fill="none" stroke="#FFFFFF" stroke-width="0.156" d="M232.279,482.872c4.22,0,7.664-3.421,7.64-7.642
		c-0.041-7.292-7.083-7.625-7.083-7.625C236.266,470.564,237.83,477.321,232.279,482.872"/>
</g>
<text transform="matrix(1 0 0 1 245.2188 480.0007)" fill="#FFFFFF" class="bold" font-size="13">Ghana</text>
<text transform="matrix(1 0 0 1 288.3721 480.0007)" fill="#FFFFFF" font-size="13">Iduapriem / Obuasi</text>
<g>
	<path fill="#FFFFFF" d="M81.028,507.303c4.237,0,7.672-3.437,7.672-7.672c0-4.237-3.436-7.67-7.672-7.67
		c-4.238,0-7.67,3.433-7.67,7.67C73.358,503.867,76.79,507.303,81.028,507.303"/>
</g>
<text transform="matrix(1 0 0 1 78.334 503.6609)" fill="#FFFFFF" font-size="12">3</text>
<text transform="matrix(1 0 0 1 93 505.0007)" fill="#FFFFFF" class="bold" font-size="13">DRC</text>
<text transform="matrix(1 0 0 1 125 505.0007)" fill="#FFFFFF" font-size="13">Kibali (45%)</text>
<g>
	<path fill="#FFFFFF" d="M232.288,507.303c4.235,0,7.672-3.437,7.672-7.672c0-4.237-3.437-7.67-7.672-7.67
		c-4.238,0-7.67,3.433-7.67,7.67C224.618,503.867,228.05,507.303,232.288,507.303"/>
</g>
<text transform="matrix(1 0 0 1 229 503.6609)" fill="#FFFFFF" font-size="11">4</text>
<text transform="matrix(1 0 0 1 245 505.0007)" fill="#FFFFFF" class="bold" font-size="13">Tanzania</text>
<text transform="matrix(1 0 0 1 301 505.0007)" fill="#FFFFFF" font-size="13">Geita</text>
</svg>
